/* XPM */
static char *toppler[] = {
/* columns rows colors chars-per-pixel */
"36 36 9 1",
"  c #040004",
". c #046104",
"X c None s None",
"o c #048a04",
"O c #04ba04",
"+ c #6dcb6d",
"@ c #ae7d04",
"# c #cfa265",
"$ c Gray100",
/* pixels */
"....XXXXXXXXXXXXXXXX....XXXXXXXXXXXX",
"....XXXXXXXXXXXXXXXX....XXXXXXXXXXXX",
"XXoo..XXXXXXXXXXXX..++++..XXXXXXXXXX",
"XXoo..XXXXXXXXXXXX..++++..XXXXXXXXXX",
"XXooooXXXXXXXXXX..++$$$$++..XXXXXXXX",
"XXooooXXXXXXXXXX..++$$$$++..XXXXXXXX",
"XXoo..XXXX........$$$$$$$$..XXXXXXXX",
"XXoo..XXXX........$$$$$$$$..XXXXXXXX",
"..ooXX....oooo..$$##@@@@##$$..XXXXXX",
"..ooXX....oooo..$$##@@@@##$$..XXXXXX",
"..oo..ooooooOO..@@@@$$  @@@@..XXXXXX",
"..oo..ooooooOO..@@@@$$  @@@@..XXXXXX",
"..ooooooOOOOOO..@@@@    @@@@....XXXX",
"..ooooooOOOOOO..@@@@    @@@@....XXXX",
"..ooooOOOOOOOOOO..@@    @@..oooo..XX",
"..ooooOOOOOOOOOO..@@    @@..oooo..XX",
"..ooOOOOOOOOOOOO..##@@@@##..ooOOoo..",
"..ooOOOOOOOOOOOO..##@@@@##..ooOOoo..",
"..ooOOOOoo....OOOO..$$$$..ooOOOOOO..",
"..ooOOOOoo....OOOO..$$$$..ooOOOOOO..",
"..OOOOOOOOoooo..OOOO....OOOOOO..OO..",
"..OOOOOOOOoooo..OOOO....OOOOOO..OO..",
"XX..OOOOOOOOOOoo..OOOOOOOOOOOOoo..XX",
"XX..OOOOOOOOOOoo..OOOOOOOOOOOOoo..XX",
"XX..OOOO..OOOOOO..OOOO..OOOOOO..XXXX",
"XX..OOOO..OOOOOO..OOOO..OOOOOO..XXXX",
"XXXX..OO..ooOO..OOOOOOoo......XXXXXX",
"XXXX..OO..ooOO..OOOOOOoo......XXXXXX",
"XXXXXX....ooOO....OO....XXXXXXXXXXXX",
"XXXXXX....ooOO....OO....XXXXXXXXXXXX",
"XXXXXX..ooOOooOOoo..XXXXXXXXXXXXXXXX",
"XXXXXX..ooOOooOOoo..XXXXXXXXXXXXXXXX",
"XXXXXX..OOOOOOOOOO..XXXXXXXXXXXXXXXX",
"XXXXXX..OOOOOOOOOO..XXXXXXXXXXXXXXXX",
"XXXXXXXX..........XXXXXXXXXXXXXXXXXX",
"XXXXXXXX..........XXXXXXXXXXXXXXXXXX"
};
